<?xml version="1.0" encoding="iso-8859-1"?>
<!-- Uploaded to: SVG Repo, www.svgrepo.com, Generator: SVG Repo Mixer Tools -->
<svg fill="#000000" height="800px" width="800px" version="1.1" id="Layer_1" xmlns="http://www.w3.org/2000/svg" xmlns:xlink="http://www.w3.org/1999/xlink" 
	 viewBox="0 0 511.999 511.999" xml:space="preserve">
<g>
	<g>
		<path d="M343.847,398.804l-51.638-30.615c0-8.228,0-79.393,0-88.414c-27.492-25.146-21.318-19.5-35.65-32.609
			c-1.95,0.075-1.817,0.045-2.935,0.019l-35.629,32.589c0,11.123,0,79.028,0,87.668l-53.848,31.36
			c-6.089,3.591-9.64,10.303-9.182,17.355l5.085,78.313c0.665,10.236,9.474,18.146,19.915,17.486
			c10.327-0.672,18.155-9.586,17.486-19.913l-4.339-66.812c0,0,47.712-28.402,48.813-29.506h24.143
			c1.101,1.105,48.813,29.506,48.813,29.506l-4.339,66.812c-0.671,10.327,7.157,19.243,17.486,19.913
			c10.245,0.676,19.239-7.088,19.914-17.486l5.085-78.313C353.487,409.107,349.936,402.395,343.847,398.804z"/>
	</g>
</g>
<g>
	<g>
		<path d="M418.446,285.046c-0.639-8.6-8.124-15.064-16.73-14.416l-33.228,2.469v31.318l35.543-2.641
			C412.63,301.137,419.085,293.647,418.446,285.046z"/>
	</g>
</g>
<g>
	<g>
		<path d="M113.166,269.843c-8.336-2.233-16.895,2.718-19.122,11.049c-2.23,8.332,2.718,16.892,11.049,19.121l36.625,9.799v-32.331
			L113.166,269.843z"/>
	</g>
</g>
<g>
	<g>
		<circle cx="255.81" cy="32.365" r="32.365"/>
	</g>
</g>
<g>
	<g>
		<path d="M214.07,224.392c-2.453-4.005-4.33-8.397-5.517-13.063l-41.345,37.817c-3.882,3.551-6.091,8.568-6.091,13.828v78.312
			c0,10.35,8.39,18.74,18.74,18.74s18.74-8.39,18.74-18.74v-70.057l32.889-30.083C224.261,237.093,218.268,231.244,214.07,224.392z"
			/>
	</g>
</g>
<g>
	<g>
		<path d="M342.997,249.146L301,210.732c-0.943,3.917-2.367,7.648-4.214,11.124c-4.068,7.659-10.336,14.378-18.372,19.01
			l33.195,30.362v70.057c-0.001,10.35,8.389,18.74,18.739,18.74s18.74-8.39,18.74-18.74v-78.312
			C349.088,257.714,346.877,252.697,342.997,249.146z"/>
	</g>
</g>
<g>
	<g>
		<path d="M394.273,169.571l-40.873-55.2c-1.311-1.77-2.981-3.243-4.902-4.322l-51.985-29.203c-2.335-1.312-4.969-2.001-7.648-2.001
			c-2.554,0-39.066,0-64.353,0c-3.164,0-6.254,0.96-8.861,2.756l-56.255,38.762c-3.813,2.629-6.263,6.814-6.689,11.426
			l-5.199,56.377c-0.792,8.588,5.528,16.192,14.116,16.984c8.606,0.79,16.194-5.542,16.984-14.115l4.529-49.1l30.934-21.314v54.175
			c8.377-13.677,23.459-22.823,40.637-22.823c18.219,0,34.074,10.289,42.079,25.358v-60.509l33.502,18.821l38.886,52.513
			c5.132,6.932,14.913,8.389,21.842,3.257C397.948,186.281,399.406,176.501,394.273,169.571z"/>
	</g>
</g>
<g>
	<g>
		<circle cx="254.703" cy="199.592" r="32.365"/>
	</g>
</g>
</svg>