<?xml version="1.0" standalone="no"?>
<!DOCTYPE svg PUBLIC "-//W3C//DTD SVG 20010904//EN"
 "http://www.w3.org/TR/2001/REC-SVG-20010904/DTD/svg10.dtd">
<svg version="1.0" xmlns="http://www.w3.org/2000/svg"
 width="947.000000pt" height="1280.000000pt" viewBox="0 0 947.000000 1280.000000"
 preserveAspectRatio="xMidYMid meet">
<metadata>
Created by potrace 1.15, written by Peter Selinger 2001-2017
</metadata>
<g transform="translate(0.000000,1280.000000) scale(0.100000,-0.100000)"
fill="#000000" stroke="none">
<path d="M415 12729 c-76 -171 -158 -468 -210 -764 -7 -44 -16 -93 -19 -110
-10 -48 -35 -220 -51 -345 -8 -63 -19 -151 -25 -195 -25 -184 -63 -680 -80
-1045 -12 -263 -12 -1273 0 -1540 52 -1131 190 -2008 389 -2471 21 -48 55
-110 75 -138 20 -28 36 -53 36 -55 0 -2 -18 -7 -41 -11 -22 -4 -43 -13 -45
-20 -16 -41 41 -210 93 -273 16 -21 22 -22 48 -12 29 11 139 42 280 80 39 10
120 32 180 49 61 17 115 31 121 31 6 0 30 -28 53 -62 62 -93 389 -437 516
-543 122 -102 331 -248 415 -290 30 -15 78 -45 107 -66 29 -22 54 -39 57 -39
5 0 77 -46 130 -83 16 -11 99 -56 185 -100 197 -101 251 -137 287 -190 16 -23
49 -69 74 -102 73 -97 85 -115 159 -230 39 -60 114 -162 166 -225 52 -63 116
-144 142 -180 54 -75 239 -261 298 -299 162 -105 259 -201 416 -411 138 -184
182 -266 219 -410 4 -19 20 -78 35 -130 14 -52 31 -135 36 -184 32 -280 193
-514 435 -635 110 -55 165 -70 332 -90 46 -6 100 -15 120 -20 36 -10 187 -27
486 -57 161 -15 205 -29 240 -76 17 -24 20 -46 22 -190 9 -509 88 -802 242
-895 l47 -28 270 1 c239 1 412 11 540 29 22 4 105 17 185 30 80 13 168 26 195
30 76 11 196 42 249 66 58 25 84 21 161 -32 32 -21 83 -47 113 -55 52 -15 60
-15 111 1 31 10 72 30 92 46 20 16 41 29 46 29 16 0 49 -42 91 -117 59 -106
106 -163 160 -194 26 -15 79 -55 117 -88 137 -118 210 -137 267 -70 24 29 82
64 227 135 60 30 86 73 79 133 -3 20 2 51 9 70 9 20 12 48 8 67 -9 50 -50 137
-75 159 -12 11 -39 45 -60 75 -21 30 -64 84 -97 120 -76 84 -144 171 -141 180
2 4 33 33 70 64 76 64 102 114 74 145 -14 15 -14 20 -1 38 8 12 19 33 25 48 8
22 6 30 -15 51 -30 30 -73 31 -175 3 -41 -11 -102 -27 -135 -34 -33 -8 -91
-24 -130 -36 -66 -20 -138 -36 -280 -60 -33 -6 -89 -10 -125 -11 -36 0 -83 -6
-105 -13 -48 -16 -250 -25 -694 -31 -267 -4 -336 -2 -342 8 -9 14 -7 27 27
147 13 46 26 93 28 105 3 11 21 99 40 194 20 96 38 177 40 180 2 4 9 61 16
127 15 150 34 195 84 195 72 0 124 -31 325 -197 107 -88 134 -106 200 -128 42
-14 99 -25 128 -25 78 0 203 47 315 118 117 74 176 96 232 86 23 -3 47 -11 54
-16 6 -6 34 -8 62 -6 60 6 121 44 153 96 21 32 28 51 43 107 1 6 9 48 16 95
16 95 35 143 59 148 9 2 31 -9 49 -24 25 -21 43 -28 78 -28 65 -1 69 24 7 54
-82 40 -80 51 24 149 l90 86 42 130 c56 178 69 255 69 408 1 111 -3 149 -26
236 -32 127 -30 197 7 256 14 22 31 56 38 75 55 147 62 161 126 249 18 25 25
47 25 82 0 45 -4 53 -70 128 -71 84 -90 124 -83 177 7 42 -38 134 -84 175 -80
70 -170 93 -269 68 -59 -15 -92 -1 -169 72 -100 94 -141 107 -351 110 -131 2
-157 -1 -180 -16 -35 -23 -88 -16 -143 20 -61 38 -115 55 -178 55 -59 0 -95
-15 -132 -54 -14 -14 -29 -26 -34 -26 -5 0 -28 -16 -50 -36 -42 -39 -36 -38
-159 -19 -47 7 -137 -26 -184 -68 -44 -38 -74 -96 -74 -141 0 -35 -3 -37 -82
-77 -145 -73 -167 -97 -188 -207 -18 -91 -5 -128 69 -192 66 -57 111 -119 111
-150 0 -11 -6 -31 -14 -43 -11 -18 -12 -63 -5 -262 9 -257 14 -358 25 -445 6
-51 4 -59 -20 -87 -28 -33 -69 -46 -177 -58 -76 -8 -364 21 -447 45 -37 10
-94 27 -127 35 -108 29 -158 48 -330 123 -93 40 -179 77 -190 82 -207 88 -425
195 -492 240 -210 142 -352 358 -414 630 -11 47 -26 121 -34 165 -8 44 -17 91
-20 105 -3 14 -12 79 -20 145 -36 317 -83 484 -194 684 -77 139 -120 179 -301
278 -160 88 -270 113 -419 93 -80 -10 -92 -10 -144 10 -31 12 -127 67 -211
123 -233 153 -270 176 -401 242 -229 116 -341 163 -544 232 l-204 68 49 13
c92 25 339 93 389 107 28 7 111 30 185 50 74 20 156 43 182 51 60 18 150 18
312 -2 188 -22 247 -38 376 -98 145 -68 252 -93 319 -75 72 19 113 43 159 92
59 65 65 82 118 327 8 36 19 77 25 92 12 29 14 30 174 73 55 14 111 30 125 35
14 4 63 18 108 31 l84 22 -7 46 c-3 25 -13 66 -21 91 -20 59 -82 160 -99 160
-7 0 -29 -7 -50 -16 -21 -8 -44 -13 -53 -9 -12 4 -8 13 20 43 48 50 136 192
144 230 4 22 1 40 -11 58 -16 25 -16 28 11 82 17 35 57 85 106 134 72 71 78
80 78 118 0 23 5 50 10 61 20 37 24 144 7 179 -15 29 -15 35 -2 53 25 36 17
56 -44 120 -69 74 -81 94 -81 142 0 47 -47 97 -108 115 -35 11 -48 11 -86 -4
-63 -24 -84 -63 -91 -161 -7 -97 -29 -150 -123 -292 -72 -111 -91 -130 -93
-95 0 9 -2 24 -4 32 -16 62 -65 371 -91 575 -19 145 -19 151 -33 295 -6 63
-16 153 -21 200 -5 47 -14 171 -20 275 -6 105 -16 264 -22 355 -17 233 -17
1435 0 1685 7 105 20 289 28 410 13 198 35 444 49 550 3 22 12 96 21 165 9 69
18 140 21 158 l5 32 -110 0 c-61 0 -113 -4 -117 -9 -3 -5 -12 -62 -21 -127
-17 -132 -16 -124 -38 -339 -9 -88 -18 -173 -21 -190 -6 -37 -33 -463 -45
-720 -12 -246 -12 -1293 0 -1545 11 -233 38 -659 45 -715 3 -22 12 -107 20
-190 30 -302 90 -712 129 -895 3 -14 11 -50 17 -80 6 -30 20 -89 30 -130 l18
-75 -22 -36 c-28 -46 -99 -106 -154 -130 -24 -10 -89 -34 -145 -53 -293 -98
-435 -130 -483 -108 -33 15 -84 15 -110 -1 -12 -7 -46 -32 -78 -55 -51 -40
-65 -45 -149 -58 -51 -7 -149 -23 -218 -34 -138 -23 -251 -41 -410 -64 -58 -9
-134 -20 -170 -26 -102 -17 -321 -40 -480 -50 -80 -6 -181 -14 -225 -20 -44
-5 -129 -14 -190 -20 -263 -25 -480 -55 -542 -76 -139 -47 -245 -128 -284
-217 -19 -44 -22 -69 -22 -162 1 -93 5 -123 28 -190 35 -103 57 -146 112 -219
25 -32 41 -62 36 -66 -13 -13 -236 -69 -246 -63 -17 11 -105 207 -141 314 -55
167 -126 461 -156 649 -5 36 -12 78 -15 94 -25 128 -68 470 -90 706 -19 199
-19 200 -34 425 -6 99 -16 243 -21 320 -13 192 -15 333 -14 970 0 303 6 629
12 725 7 96 17 252 23 345 6 94 12 188 14 210 2 22 8 101 15 175 6 74 13 144
15 156 2 11 11 81 20 155 8 74 17 148 19 164 45 300 61 398 91 545 48 239 125
502 189 644 14 32 26 59 26 60 0 1 -51 3 -114 4 l-114 1 -27 -60z"/>
</g>
</svg>
