<?xml version="1.0" encoding="UTF-8"?>
<svg id="svg3921" xmlns="http://www.w3.org/2000/svg" xmlns:svg="http://www.w3.org/2000/svg" version="1.1" viewBox="0 0 127.1 146.5">
  <!-- Generator: Adobe Illustrator 29.0.1, SVG Export Plug-In . SVG Version: 2.1.0 Build 192)  -->
  <defs>
    <style>
      .st0 {
        fill: #b1a300;
      }

      .st1 {
        fill: #8f2a82;
      }

      .st2 {
        fill: #0095d9;
      }

      .st3 {
        fill: #008d51;
      }

      .st4 {
        fill: #ea5a93;
      }

      .st5 {
        fill: #e53139;
      }

      .st6 {
        fill: #ffdc00;
      }
    </style>
  </defs>
  <path id="path2556" class="st0" d="M109.7,17.8c0-.8,0-2.6,0-2.6-.3-1-.4-3.5-1.1-3.8-.7-.3-3.7-2.9-3.7-3-.6-.1-2,.1-2.1,0-1-.2-1.9-.4-1.9-.6-1.4.2-3,1.6-3.5,1.8,0,.2-1.4.4-2.8,1.3,0,0-.8,1-1,1.1,0,.2-.7,1-.9,1.6-.2.6-.1,2-.7,3.3-.6,1.3-.7,2.8-.9,3.1,0,0-.6,2.3-.8,2.4-.2.5-.9,3.2-.9,3.2,0,1.1-.3,3.6-.5,4.3,0,.2-.4,3.5-.6,3.6,0,0,0,1.4-.3,1.5,0,1,0,4.1-.1,4.2-.1,1.4.4,2,.3,3.4.2,0,6.2,3.4,6.9,4.8.9-.2,2.7-.1,2.7-.1l1.4-1.8.9-2s2.3-6.1,2.8-7.5c.5-1.4,6.8-16.8,6.8-17.9"/>
  <path id="path2558" class="st0" d="M82.6,116.8l2.8,2.1s1.9,2.1,2.1,2.1c.3.8-.3,1.3,0,2.1l1.4.7c.5,1.7.5,5.6.7,5.6,0,.5.5,2.1.7,2.1.4,2.3,0,1.8-.7,4.9-1.2.1-2.8-.1-2.8,0-2.8.8-5.7,1.8-5.7,1.8-2.4,0-7.5-1.8-7.5-1.8-.3-1.7-.8-1-.7-2.8.2,0,.7-4,.7-6.3.2,0,.2-7.7,0-7.7v-1.4c1.3-1.1,1.2-.2,2.8-.7,0,0,1.5-1.3,2.4-1.3s3.2-.1,3.8.6"/>
  <path id="path2560" class="st0" d="M68,40.4c1.9-.3,5.8-.6,7.7,0,.6.2,0,1,1.4,1.4,0,0,.5,1.4.7,1.4l1.4,2.1c.7,1,1.2,2.8,1.4,2.8.4.9,1.2,2.8,1.4,2.8l2.1,2.8c.2,0,.7.5.7.7,2.7,1.3,6.2,6,6.2,6.3,0,0-.3,1.9,1.9,3.3,0,.2.9,2.2.9,2.9.1.8,1.2,6.3,1.4,6.3.2,1.6.5,4.9.7,4.9,0,3.6.5,7.6,0,11.1-.2,0-.6,2.3-.7,3.5-.2,0-.4,1.6-.7,2.1-.5.8-3,2-3.5,2.8l-1.4,2.1c-.2,0-.7,1.4-.7,1.4-.2,0-.8,1.6-1.4,2.1,0,0-1.4.5-1.4.7-1.4.4-3.5,1.2-3.5,1.4-1.5.4-2.8.2-4.2.7,0,.2-3.3,1.5-3.3,1.8-.6,0-3.4.5-3.7.3,0,0-11.1-.9-11.1-.7-1.4.2-4.2.5-4.2.7-2.1,0-5.7.7-7.6,0,0,0-1.9-1.8-2.1-2.1-.7-1.1-3.5-6.3-3.5-6.3,0,0-1-1.9-1.4-2.1,0,0-.5-1.4-.7-1.4,0-.2-.5-.7-.7-.7l-2.1-2.8-2.1-2.8v-2.8c1-4.1,0-12.9,0-17.4.2,0,1-4.2,1.4-7,.2,0,.5-1.5.7-2.1.2,0,.9-1.2,1.4-2.8.2,0,.7-1.4.7-1.4.2,0,1.4-1.8,1.4-2.1.2,0,1.4-1.4,1.4-1.4,0,0,2.8-1.8,2.8-2.1,0,0,2-1.2,2.1-1.4l2.8-2.1c.8-.5,2.8-1.1,2.8-1.4,1.3-.5,2.9,0,4.2-.7.4-.2,2.1-2.5,2.1-2.8,0,0,1.4-.5,1.4-.7,1.1,0,2.5.2,3.5,0,0,0,2.2-1.2,3.5-1.4"/>
  <path id="path2562" class="st0" d="M45,41.7c0-.5-.2-2.4-.2-2.4-.9-2.2-1.1-2.7-1.8-5.2-.2,0-.7-1.4-.7-1.4-.2,0-.7-1.4-.7-1.4,0,0-.7-2.5-1-3.5,0,0-.4-1.1-.2-1.1l-.4-1.6c-.2,0-.5-1-.8-1.6-.2,0-.2-.5-.5-.5-.4-.8-.3-.6-.7-1.4h-.7c-.1.2-2.1,1.4-2.1,1.4-.4.5-1.1,2.5-1.4,2.8-.1.1-.8.4-1,.4-.2,0-.9.3-1.1.3,0,.2-3.5,1.1-3.5,1.4-.8.4-1.2,1-2.1,1.4.4.8,1.4,2.8,1.4,2.8l1.4,2.1c.2.3.4,1.9.7,2.1.3.9,1,2.8,1,2.8,0,0,.9,1.8,1.1,2.8.2,0,.7,1.4.7,1.4,0,0,1.7,3.8,2.1,4.2.2,0,1.2.8,1.2,1,.8.1,1.3.8,3,.4,0,0,1.7-.2,1.7,0,.8-.2,1,.3,1.8,0,0,0,1.9-1.2,1.6-2.3,0,0,.8-2.1,1.2-4.7"/>
  <path id="path2564" class="st0" d="M62.4,10.5s.5-1,1.4-.7c1.2.4,1.4-.7,1.4-.7.8-.3,2.6-1.2,2.8-1.4h1.4c-.3,1.1,2.9,3.8,3.5,4.2,0,3.5.5,11.1.7,11.1,0,.5,0,1.7,0,2.1-.2,0-1,2.3-1.4,3.5-.2,0-.5,2.3-.7,3.5-1.7-.2-1.5,1-3.5.7,0-.2-6-.4-6.3.7-.6.3-2.2.3-2.2.5-1.4.3-1.6-.1-2.7.2-.2-.3-1.8-2.1-2.1-2.1-.4-.7-.5-2.1-.7-2.1v-12.5c.2-.1.9-2.2,1.4-2.8l2.8-2.1c.2,0,1.6-1,1.9-1,0,0,1.5-.9,2.3-1.1"/>
  <path id="path2566" class="st0" d="M45.7,137.7s1.4.5,1.4.7c1.5.3,2.5,0,4.4,0,0,0,.9-1.4,1.2-1.4.4-1.6.5-4.9.7-4.9.4-1.7,1.2-4.2,1.4-4.2.2-1.1.4-2.8.7-2.8,0,0,.5-1.4.7-1.4.3-1.1-.3-1.7,0-2.8-.7-.9-2-1.2-2.5-1.2s-1.1.9-2.3.5l-.7-1.4s-1.4-.5-1.4-.7c-.1,0-2.1-1.4-2.1-1.4,0,0-.5-1.4-.7-1.4-.4-1.5.3-3.3-.2-4.3l-1.3-.2c-.2,0-2,.4-2,.4-1.6.9-2.1.2-2.8.7,0,0-.5,1.4-.7,1.4-.4,1.1-2.1,2.8-2.1,2.8-.2.6-2.1,3.5-2.1,3.5,0,0-.5,1.4-.7,1.4,0,.8-.5,2.1-.7,2.1-.3,1.4-1,3-.7,5.6.2,0,.4,1.7.7,2.8.2,0,.5,1.4.5,1.4.2,0,.9,1.6,1.1,2.4.2,0,.8.9,1.1,1.8,1.1,0,1.7.2,2.8,0,0,0,.8-1.1,2.1-.7,0,0,1,1.1,1.7,1.2.7,0,2.5,0,2.5.2"/>
  <path id="path2582" class="st4" d="M80.4,115.2l2.8,2.1s1.9,2.1,2.1,2.1c.3.8-.3,1.3,0,2.1l1.4.7c.5,1.7.5,5.6.7,5.6,0,.5.5,2.1.7,2.1.4,2.3,0,1.8-.7,4.9-1.2.1-2.8-.1-2.8,0-2.8.8-5.7,1.8-5.7,1.8-2.4,0-7.5-1.8-7.5-1.8-.3-1.7-.8-1-.7-2.8.2,0,.7-4,.7-6.3.2,0,.2-7.7,0-7.7v-1.4c1.3-1.1,1.2-.2,2.8-.7,0,0,1.5-1.3,2.4-1.3s3.2-.1,3.8.6"/>
  <path id="path2584" class="st6" d="M65.8,38.7c1.9-.3,5.8-.6,7.7,0,.6.2,0,1,1.4,1.4,0,0,.5,1.4.7,1.4l1.4,2.1c.7,1,1.2,2.8,1.4,2.8.4.9,1.2,2.8,1.4,2.8l2.1,2.8c.2,0,.7.5.7.7,2.7,1.3,6.3,6,6.3,6.3,0,0-.3,1.9,1.9,3.3,0,.2.9,2.2.9,2.9.1.8,1.2,6.3,1.4,6.3.2,1.6.5,4.9.7,4.9,0,3.6.5,7.6,0,11.1-.2,0-.6,2.3-.7,3.5-.2,0-.4,1.6-.7,2.1-.5.8-3,2-3.5,2.8l-1.4,2.1c-.2,0-.7,1.4-.7,1.4-.2,0-.8,1.6-1.4,2.1,0,0-1.4.5-1.4.7-1.4.4-3.5,1.2-3.5,1.4-1.5.4-2.9.2-4.2.7,0,.2-3.3,1.5-3.3,1.8-.6,0-3.4.5-3.7.3,0,0-11.1-.9-11.1-.7-1.4.2-4.2.5-4.2.7-2.1,0-5.7.7-7.6,0,0,0-1.9-1.8-2.1-2.1-.7-1.1-3.5-6.3-3.5-6.3,0,0-1-1.9-1.4-2.1,0,0-.5-1.4-.7-1.4,0-.2-.5-.7-.7-.7l-2.1-2.8-2.1-2.8v-2.8c1-4.1,0-12.9,0-17.4.2,0,1-4.2,1.4-7,.2,0,.5-1.5.7-2.1.2,0,.9-1.2,1.4-2.8.2,0,.7-1.4.7-1.4.2,0,1.4-1.8,1.4-2.1.2,0,1.4-1.4,1.4-1.4,0,0,2.8-1.8,2.8-2.1,0,0,2-1.2,2.1-1.4l2.8-2.1c.8-.5,2.8-1.1,2.8-1.4,1.3-.5,2.9,0,4.2-.7.4-.2,2.1-2.5,2.1-2.8,0,0,1.4-.5,1.4-.7,1.1,0,2.5.2,3.5,0,0,0,2.2-1.2,3.5-1.4"/>
  <path id="path2586" class="st2" d="M42.8,40.1c0-.5-.2-2.4-.2-2.4-.9-2.2-1.1-2.7-1.8-5.2-.2,0-.7-1.4-.7-1.4-.2,0-.7-1.4-.7-1.4,0,0-.7-2.5-1-3.5,0,0-.4-1.1-.2-1.1l-.4-1.6c-.2,0-.5-1-.8-1.6-.2,0-.2-.5-.5-.5-.4-.8-.3-.6-.7-1.4h-.7c-.1.2-2.1,1.4-2.1,1.4-.4.4-1.1,2.5-1.4,2.8-.1.1-.8.4-1,.4-.2,0-.9.3-1.1.3,0,.2-3.5,1.1-3.5,1.4-.8.4-1.2,1-2.1,1.4.4.8,1.4,2.8,1.4,2.8l1.4,2.1c.2.3.4,1.9.7,2.1.3.9,1,2.8,1,2.8,0,0,.9,1.8,1.1,2.8.2,0,.7,1.4.7,1.4,0,0,1.7,3.8,2.1,4.2.2,0,1.2.8,1.2,1,.8.1,1.3.8,3,.4,0,0,1.7-.2,1.7,0,.8-.2,1,.3,1.8,0,0,0,1.9-1.2,1.6-2.3,0,0,.8-2.1,1.2-4.7"/>
  <path id="path2588" class="st5" d="M107.5,16.1c0-.8,0-2.6,0-2.6-.3-1-.4-3.5-1.1-3.8-.7-.3-3.7-2.9-3.7-3-.6-.1-2,.1-2.1,0-1-.2-1.9-.4-1.9-.6-1.4.2-3,1.6-3.5,1.8,0,.2-1.4.4-2.8,1.3,0,0-.8,1-1,1.1,0,.2-.7,1-.9,1.6-.2.6-.1,2-.7,3.3-.6,1.3-.7,2.8-.9,3.1,0,0-.6,2.3-.8,2.4-.2.5-.9,3.2-.9,3.2,0,1.1-.3,3.6-.5,4.3,0,.2-.4,3.5-.6,3.6,0,0,0,1.4-.3,1.5,0,1,0,4.1-.1,4.2-.1,1.4.4,2,.3,3.4.2,0,6.2,3.4,7,4.8.9-.2,2.7-.1,2.7-.1l1.4-1.8.9-2s2.3-6.1,2.8-7.5c.5-1.4,6.8-16.8,6.8-17.9"/>
  <path id="path2590" class="st3" d="M60.2,8.9s.5-1,1.4-.7c1.2.4,1.4-.7,1.4-.7.8-.3,2.6-1.2,2.8-1.4h1.4c-.3,1.1,2.9,3.8,3.5,4.2,0,3.5.5,11.1.7,11.1,0,.5,0,1.7,0,2.1-.2,0-1,2.3-1.4,3.5-.2,0-.5,2.3-.7,3.5-1.7-.2-1.5,1-3.5.7,0-.2-6-.4-6.2.7-.6.3-2.2.3-2.2.5-1.4.3-1.6-.1-2.7.2-.2-.3-1.8-2.1-2.1-2.1-.4-.7-.5-2.1-.7-2.1v-12.5c.2-.1.9-2.2,1.4-2.8l2.8-2.1c.2,0,1.6-1,1.9-1,0,0,1.5-.9,2.3-1.1"/>
  <path id="path2592" class="st1" d="M43.5,136.1s1.4.5,1.4.7c1.5.3,2.5,0,4.4,0,0,0,.9-1.4,1.2-1.4.4-1.6.5-4.9.7-4.9.4-1.7,1.1-4.2,1.4-4.2.2-1.1.5-2.8.7-2.8,0,0,.5-1.4.7-1.4.3-1.1-.3-1.7,0-2.8-.7-.9-2-1.1-2.5-1.1s-1.1.9-2.3.5l-.7-1.4s-1.4-.5-1.4-.7c-.1,0-2.1-1.4-2.1-1.4,0,0-.5-1.4-.7-1.4-.4-1.5.3-3.3-.3-4.3l-1.3-.2c-.2,0-2,.4-2,.4-1.6.9-2.1.2-2.8.7,0,0-.5,1.4-.7,1.4-.4,1.1-2.1,2.8-2.1,2.8-.2.6-2.1,3.5-2.1,3.5,0,0-.5,1.4-.7,1.4,0,.8-.5,2.1-.7,2.1-.3,1.4-1,3-.7,5.6.2,0,.4,1.7.7,2.8.2,0,.5,1.4.5,1.4.2,0,.9,1.6,1.1,2.4.2,0,.8.9,1.2,1.8,1.1,0,1.7.2,2.8,0,0,0,.8-1.1,2.1-.7,0,0,1,1.1,1.7,1.2.7,0,2.5,0,2.5.2"/>
</svg>